:SAMPLES-PER-SECOND 30
:FRAME-RANGE 1-3549
:FULLY-SPECIFIED
:DEGREES
888
root  -38.9757 38.6955 -22.6432 3.95294 84.6134 0.275269
RightUpLeg  -23.9358 -1.11749 6.5496
RightLeg  13.3068 -16.2399 -3.26078
RightFoot  1.74087 0.282972 -2.36256
RightToes  1.218e-010 1.26228e-014 -6.01869e-014
Spine  -5.40424 -3.01569 -2.91323
Spine1  8.80001 -3.98828 3.54813
HEad  -0.120541 -14.4573 1.95083
LeftShoulder1  1.712 -2.98676 -21.0732
LeftArm  1.18375 -11.3014 -37.9865
LeftForeArm  31.7687 -1.2401 -13.0812
LeftHand  -0.0491646 4.41253 3.35526
RightShoulder  1.04653 0.0267284 25.2265
RightArm  -24.8748 2.38631 47.6444
RightForeArm  61.475 4.32398 5.09063
RightHand  -0.0280989 -5.28843 -13.0621
LeftUpLeg  6.36816 7.4185 1.71516
LeftLeg  19.9946 10.808 4.64202
LeftFoot  -16.2933 -0.615805 -16.3913
LeftToes  -1.43952e-010 7.51141e-011 -1.22592e-011
889
root  -37.8653 38.6525 -22.6101 0.471802 83.2358 -3.31293
RightUpLeg  -24.2408 -3.98259 8.30504
RightLeg  16.8981 -11.6685 -3.93034
RightFoot  -0.0828394 0.256469 -2.60561
RightToes  1.218e-010 1.26228e-014 -6.01869e-014
Spine  -5.78064 -2.63224 -1.54287
Spine1  9.18358 -3.71057 3.82955
HEad  -1.20551 -13.6826 1.74315
LeftShoulder1  1.71953 -3.03406 -20.9835
LeftArm  2.47409 -9.56639 -40.4097
LeftForeArm  31.458 -2.87045 -12.9805
LeftHand  -0.0556625 4.16053 3.40414
RightShoulder  1.21725 0.58568 25.1375
RightArm  -25.4547 2.4235 47.0444
RightForeArm  58.5082 3.53488 4.76454
RightHand  -0.0663179 -4.97138 -14.3468
LeftUpLeg  5.14589 9.7175 3.0823
LeftLeg  25.7794 8.49335 4.78493
LeftFoot  -13.5872 -0.316951 -20.1101
LeftToes  -1.43952e-010 7.51141e-011 -1.22592e-011
890
root  -36.8536 38.7055 -22.5157 -1.71613 82.4243 -5.7113
RightUpLeg  -23.4673 -3.22327 8.63887
RightLeg  18.3591 -11.6318 -4.32788
RightFoot  -1.5001 0.272973 -3.28594
RightToes  1.218e-010 1.26228e-014 -6.01869e-014
Spine  -5.8474 -2.61627 -0.508655
Spine1  9.31793 -3.85442 4.61783
HEad  -1.41129 -12.9433 1.79889
LeftShoulder1  1.71126 -2.99218 -21.0355
LeftArm  6.84464 -7.93592 -41.7755
LeftForeArm  31.0432 -5.23808 -13.0895
LeftHand  -0.0576971 3.8352 2.93563
RightShoulder  1.20605 0.51787 25.4091
RightArm  -25.7944 2.45173 46.8861
RightForeArm  58.9783 4.07457 4.67293
RightHand  -0.0606106 -5.0064 -13.7413
LeftUpLeg  2.4048 11.1455 4.37668
LeftLeg  32.9344 7.05125 5.25114
LeftFoot  -8.04983 0.676364 -21.6428
LeftToes  -1.43952e-010 7.51141e-011 -1.22592e-011
891
root  -35.9029 38.7267 -22.4051 -4.54565 81.8339 -8.52271
RightUpLeg  -22.3909 -2.22709 8.93819
RightLeg  19.6277 -12.1392 -4.75136
RightFoot  -3.08786 0.238071 -3.58639
RightToes  1.218e-010 1.26228e-014 -6.01869e-014
Spine  -5.32864 -2.71143 0.684635
Spine1  9.01788 -3.96659 5.02255
HEad  -1.24646 -12.6474 1.78125
LeftShoulder1  1.66511 -2.7775 -21.2485
LeftArm  13.1424 -7.10924 -42.5256
LeftForeArm  30.945 -7.87218 -12.9044
LeftHand  -0.0528405 3.73052 2.41757
RightShoulder  1.16884 0.376938 25.6068
RightArm  -24.5922 2.70828 46.4218
RightForeArm  59.5897 5.09539 5.34166
RightHand  -0.0744305 -4.84793 -12.5798
LeftUpLeg  -1.47746 12.1627 5.60121
LeftLeg  41.3762 5.78328 5.82074
LeftFoot  -1.46101 1.59545 -18.2255
LeftToes  -1.43952e-010 7.51141e-011 -1.22592e-011
892
root  -35.0033 38.6682 -22.3273 -7.49475 80.4743 -11.3101
RightUpLeg  -21.4174 -2.80037 9.76593
RightLeg  21.1841 -10.494 -4.50603
RightFoot  -5.08705 0.167441 -3.69188
RightToes  1.218e-010 1.26228e-014 -6.01869e-014
Spine  -4.53297 -2.46724 2.40769
Spine1  8.8003 -3.61661 4.94529
HEad  -1.2176 -12.5369 1.82237
LeftShoulder1  1.636 -2.64661 -21.3683
LeftArm  16.6517 -6.7351 -43.1397
LeftForeArm  31.321 -9.42399 -12.4899
LeftHand  -0.0471258 3.87056 2.12998
RightShoulder  1.20402 0.486072 25.6292
RightArm  -22.8723 3.32333 45.4769
RightForeArm  60.266 6.38269 6.24013
RightHand  -0.111419 -4.4552 -11.9967
LeftUpLeg  -5.41481 13.3024 6.56925
LeftLeg  49.0364 4.79735 6.33333
LeftFoot  3.32837 1.51994 -11.9321
LeftToes  -1.43952e-010 7.51141e-011 -1.22592e-011
893
root  -34.1142 38.696 -22.2378 -7.02325 78.7424 -10.7789
RightUpLeg  -20.0594 -2.80126 9.97082
RightLeg  21.8035 -9.00139 -3.96568
RightFoot  -6.74732 0.0997494 -3.62181
RightToes  1.218e-010 1.26228e-014 -6.01869e-014
Spine  -3.9827 -2.11718 3.46592
Spine1  8.60564 -3.12813 4.70139
HEad  -1.26371 -12.3272 2.08936
LeftShoulder1  1.58666 -2.51394 -21.1316
LeftArm  17.5917 -6.23409 -43.6988
LeftForeArm  31.5248 -10.0464 -12.2126
LeftHand  -0.0471939 4.09808 2.42923
RightShoulder  1.29145 0.755194 25.6972
RightArm  -21.3161 4.3373 44.2885
RightForeArm  60.9131 7.81031 6.97387
RightHand  -0.121243 -4.3101 -11.4537
LeftUpLeg  -8.85102 14.0588 6.82701
LeftLeg  54.3892 4.5016 7.21228
LeftFoot  1.593 1.35253 -11.9839
LeftToes  -1.43952e-010 7.51141e-011 -1.22592e-011
894
root  -33.2366 38.7748 -22.1275 -4.92285 76.8062 -8.65485
RightUpLeg  -18.4697 -1.51503 9.65506
RightLeg  21.8642 -8.47715 -3.70374
RightFoot  -7.99748 0.0409225 -3.25301
RightToes  1.218e-010 1.26228e-014 -6.01869e-014
Spine  -3.75536 -1.81181 3.95023
Spine1  8.57838 -2.6977 4.32834
HEad  -1.04031 -11.7878 2.31198
LeftShoulder1  1.50598 -2.27561 -20.8298
LeftArm  17.843 -5.61332 -43.703
LeftForeArm  30.4163 -10.6863 -11.8866
LeftHand  -0.0447524 4.23923 2.67467
RightShoulder  1.38562 1.08302 25.4738
RightArm  -20.4999 5.87356 43.772
RightForeArm  61.3173 8.66344 7.15666
RightHand  -0.121892 -4.3195 -11.6351
LeftUpLeg  -11.9394 14.4421 6.49467
LeftLeg  56.6551 3.98489 7.01483
LeftFoot  0.253592 1.12962 -11.1158
LeftToes  -1.43952e-010 7.51141e-011 -1.22592e-011
895
root  -32.3564 38.8736 -22.0197 -2.75092 74.7937 -6.46637
RightUpLeg  -16.6679 -1.31059 9.22575
RightLeg  21.4058 -7.10594 -2.96035
RightFoot  -9.24589 -0.00284958 -3.26043
RightToes  1.218e-010 1.26228e-014 -6.01869e-014
Spine  -3.57546 -1.57339 4.35347
Spine1  8.4326 -2.28738 3.58686
HEad  -0.407067 -11.1611 2.22498
LeftShoulder1  1.42672 -2.01121 -20.6692
LeftArm  17.9589 -5.14021 -42.9023
LeftForeArm  29.0213 -11.3797 -11.5058
LeftHand  -0.0432006 3.98361 2.26168
RightShoulder  1.42929 1.28156 25.047
RightArm  -19.1908 7.52895 43.5804
RightForeArm  61.011 9.79399 7.30463
RightHand  -0.11592 -4.35246 -11.2956
LeftUpLeg  -14.5842 14.3638 5.92199
LeftLeg  56.2845 3.83143 6.67259
LeftFoot  -1.29486 0.958268 -10.7909
LeftToes  -1.43952e-010 7.51141e-011 -1.22592e-011
896
root  -31.4912 38.9699 -21.9167 -0.989746 72.9318 -4.7995
RightUpLeg  -15.1495 -1.01252 8.64698
RightLeg  21.0783 -5.65267 -2.27138
RightFoot  -10.2276 -0.0367237 -3.33254
RightToes  1.218e-010 1.26228e-014 -6.01869e-014
Spine  -3.39051 -1.36798 4.57228
Spine1  8.11861 -1.99969 3.14297
HEad  0.175528 -10.6603 1.75692
LeftShoulder1  1.36344 -1.76932 -20.7023
LeftArm  17.9224 -4.85224 -41.8464
LeftForeArm  28.5812 -11.9231 -11.1655
LeftHand  -0.042464 4.07357 2.28768
RightShoulder  1.49001 1.57267 24.4117
RightArm  -16.2382 8.9349 43.2458
RightForeArm  58.9958 11.7109 7.37775
RightHand  -0.099951 -4.52082 -11.2656
LeftUpLeg  -17.0662 13.5913 5.21437
LeftLeg  54.1715 4.95225 7.81046
LeftFoot  -4.18364 0.678259 -10.4232
LeftToes  -1.43952e-010 7.51141e-011 -1.22592e-011
897
root  -30.6358 39.0517 -21.8105 0.859131 71.098 -3.02203
RightUpLeg  -13.506 -0.851013 7.94609
RightLeg  20.4468 -4.30877 -1.69854
RightFoot  -11.257 -0.0735337 -3.45107
RightToes  1.218e-010 1.26228e-014 -6.01869e-014
Spine  -3.24071 -1.11259 4.41983
Spine1  7.91012 -1.7136 2.7273
HEad  0.184415 -10.264 1.27644
LeftShoulder1  1.30186 -1.52644 -20.7822
LeftArm  18.1553 -4.64957 -40.8021
LeftForeArm  27.7013 -12.8878 -10.5706
LeftHand  -0.0450654 4.19898 2.37209
RightShoulder  1.52284 1.79263 23.7076
RightArm  -12.6104 10.5182 42.8397
RightForeArm  56.2024 13.853 7.03972
RightHand  -0.077609 -4.75407 -11.1472
LeftUpLeg  -19.2475 12.5098 4.47355
LeftLeg  50.6487 6.75521 9.1915
LeftFoot  -6.54787 0.43708 -9.49107
LeftToes  -1.43952e-010 7.51141e-011 -1.22592e-011
898
root  -29.7999 39.1572 -21.7108 1.8598 69.4254 -2.20685
RightUpLeg  -12.2483 -0.829366 7.18674
RightLeg  20.3097 -2.19514 -0.874365
RightFoot  -11.8846 -0.0954174 -3.18265
RightToes  1.218e-010 1.26228e-014 -6.01869e-014
Spine  -3.08758 -0.895586 4.56322
Spine1  7.65578 -1.46196 2.32771
HEad  -0.134542 -9.93495 0.855415
LeftShoulder1  1.26696 -1.41186 -20.6902
LeftArm  19.2587 -4.32213 -39.6804
LeftForeArm  24.9743 -14.4343 -9.62646
LeftHand  -0.0502573 4.11059 2.75099
RightShoulder  1.57111 2.05242 23.1366
RightArm  -9.41023 12.2336 42.2746
RightForeArm  53.2671 15.6867 6.45433
RightHand  -0.0789056 -4.72591 -10.8814
LeftUpLeg  -21.2189 10.8921 4.11825
LeftLeg  45.808 8.57632 9.73077
LeftFoot  -6.66844 0.360141 -7.84009
LeftToes  -1.43952e-010 7.51141e-011 -1.22592e-011
